<svg width="27" height="24" viewBox="0 0 27 24" fill="none" xmlns="http://www.w3.org/2000/svg">
<g clip-path="url(#clip0_14_64)">
<path fill-rule="evenodd" clip-rule="evenodd" d="M23.8702 0.476627C24.1997 0.337948 24.5603 0.290119 24.9146 0.338117C25.2688 0.386114 25.6037 0.528185 25.8844 0.749537C26.1651 0.970897 26.3814 1.26345 26.5107 1.59674C26.6399 1.93003 26.6775 2.29188 26.6195 2.64463L23.5955 20.9873C23.3022 22.7566 21.3608 23.7713 19.7382 22.89C18.3808 22.1526 16.3648 21.0166 14.5515 19.8313C13.6448 19.238 10.8675 17.338 11.2088 15.986C11.5022 14.83 16.1688 10.486 18.8355 7.9033C19.8822 6.88863 19.4048 6.3033 18.1688 7.23663C15.0995 9.55396 10.1715 13.078 8.54217 14.07C7.10484 14.9446 6.35551 15.094 5.45951 14.9446C3.82484 14.6726 2.30884 14.2513 1.07151 13.738C-0.600493 13.0446 -0.51916 10.746 1.07017 10.0766L23.8702 0.476627Z" fill="#FBFBFB"/>
</g>
<defs>
<clipPath id="clip0_14_64">
<rect width="28" height="24" fill="white" transform="translate(-0.5 -0.429993)"/>
</clipPath>
</defs>
</svg>
