<svg width="27" height="27" viewBox="0 0 27 27" fill="none" xmlns="http://www.w3.org/2000/svg">
<path d="M22.2221 5.24137C22.3194 5.13013 22.3938 5.00081 22.4411 4.8608C22.4884 4.7208 22.5077 4.57284 22.4978 4.42539C22.488 4.27793 22.4492 4.13387 22.3836 4.00142C22.3181 3.86897 22.2271 3.75072 22.1158 3.65344C22.0046 3.55615 21.8752 3.48173 21.7352 3.43442C21.5952 3.38712 21.4473 3.36785 21.2998 3.37772C21.1524 3.38759 21.0083 3.42641 20.8759 3.49196C20.7434 3.55751 20.6252 3.6485 20.5279 3.75975L14.7791 10.3298L9.9 3.825C9.79521 3.68528 9.65933 3.57188 9.50312 3.49377C9.3469 3.41566 9.17465 3.375 9 3.375H4.5C4.29107 3.375 4.08628 3.43318 3.90855 3.54302C3.73083 3.65286 3.5872 3.81002 3.49377 3.99688C3.40034 4.18375 3.36078 4.39295 3.37955 4.60103C3.39831 4.80911 3.47464 5.00786 3.6 5.175L10.8416 14.8298L4.77788 21.7597C4.68059 21.871 4.60617 22.0003 4.55886 22.1403C4.51155 22.2803 4.49229 22.4283 4.50216 22.5757C4.51203 22.7232 4.55085 22.8673 4.6164 22.9997C4.68195 23.1322 4.77294 23.2504 4.88419 23.3477C4.99543 23.445 5.12475 23.5194 5.26476 23.5667C5.40477 23.614 5.55272 23.6333 5.70017 23.6234C5.84763 23.6135 5.99169 23.5747 6.12415 23.5092C6.2566 23.4436 6.37484 23.3526 6.47213 23.2414L12.2209 16.6702L17.1 23.175C17.2048 23.3147 17.3407 23.4281 17.4969 23.5062C17.6531 23.5843 17.8253 23.625 18 23.625H22.5C22.7089 23.625 22.9137 23.5668 23.0914 23.457C23.2692 23.3471 23.4128 23.19 23.5062 23.0031C23.5997 22.8162 23.6392 22.607 23.6205 22.399C23.6017 22.1909 23.5254 21.9921 23.4 21.825L16.1584 12.1702L22.2221 5.24137Z" fill="#FBFBFB"/>
</svg>
