<svg width="27" height="27" viewBox="0 0 27 27" fill="none" xmlns="http://www.w3.org/2000/svg">
<g clip-path="url(#clip0_14_65)">
<g clip-path="url(#clip1_14_65)">
<path d="M15.4974 26.6833C21.9121 25.718 26.8307 20.1833 26.8307 13.4993C26.8307 6.13535 20.8614 0.166016 13.4974 0.166016C6.1334 0.166016 0.164062 6.13535 0.164062 13.4993C0.164062 20.1833 5.08273 25.7194 11.4974 26.6833V17.4993H9.4974C8.96696 17.4993 8.45825 17.2886 8.08318 16.9136C7.70811 16.5385 7.4974 16.0298 7.4974 15.4993C7.4974 14.9689 7.70811 14.4602 8.08318 14.0851C8.45825 13.7101 8.96696 13.4993 9.4974 13.4993H11.4974V10.8327C11.4974 9.595 11.9891 8.40802 12.8642 7.53285C13.7394 6.65768 14.9264 6.16602 16.1641 6.16602H16.8307C17.3612 6.16602 17.8699 6.37673 18.2449 6.7518C18.62 7.12687 18.8307 7.63558 18.8307 8.16602C18.8307 8.69645 18.62 9.20516 18.2449 9.5802C17.8699 9.9553 17.3612 10.166 16.8307 10.166H16.1641C15.9873 10.166 15.8177 10.2363 15.6927 10.3613C15.5676 10.4863 15.4974 10.6559 15.4974 10.8327V13.4993H17.4974C18.0278 13.4993 18.5365 13.7101 18.9116 14.0851C19.2867 14.4602 19.4974 14.9689 19.4974 15.4993C19.4974 16.0298 19.2867 16.5385 18.9116 16.9136C18.5365 17.2886 18.0278 17.4993 17.4974 17.4993H15.4974V26.6833Z" fill="#FBFBFB"/>
</g>
</g>
<defs>
<clipPath id="clip0_14_65">
<rect width="27" height="27" fill="white"/>
</clipPath>
<clipPath id="clip1_14_65">
<rect width="27" height="27" fill="white"/>
</clipPath>
</defs>
</svg>
