<svg width="27" height="27" viewBox="0 0 27 27" fill="none" xmlns="http://www.w3.org/2000/svg">
<path d="M14.7047 0C16.2047 0.004 16.9661 0.012 17.6234 0.030666L17.8821 0.04C18.1807 0.050666 18.4754 0.064 18.8314 0.08C20.2501 0.146666 21.2181 0.370664 22.0674 0.700004C22.9474 1.03866 23.6887 1.49733 24.4301 2.23733C25.1081 2.90386 25.6327 3.71011 25.9674 4.6C26.2967 5.44933 26.5207 6.41733 26.5874 7.83733C26.6034 8.192 26.6167 8.48666 26.6274 8.78666L26.6354 9.04533C26.6554 9.70128 26.6634 10.4627 26.6661 11.9627L26.6674 12.9574V14.704C26.6707 15.6766 26.6604 16.6491 26.6367 17.6213L26.6287 17.88C26.6181 18.18 26.6047 18.4747 26.5887 18.8293C26.5221 20.2493 26.2954 21.216 25.9674 22.0667C25.6336 22.9571 25.1089 23.7635 24.4301 24.4294C23.7633 25.1071 22.9571 25.6317 22.0674 25.9667C21.2181 26.296 20.2501 26.52 18.8314 26.5867C18.515 26.6016 18.1986 26.6149 17.8821 26.6267L17.6234 26.6347C16.9661 26.6533 16.2047 26.6627 14.7047 26.6654L13.7101 26.6667H11.9647C10.9917 26.67 10.0188 26.6598 9.04611 26.636L8.78744 26.628C8.47092 26.616 8.15447 26.6022 7.8381 26.5867C6.41944 26.52 5.45144 26.296 4.60077 25.9667C3.711 25.6325 2.90506 25.1078 2.23944 24.4294C1.56083 23.7631 1.03574 22.9568 0.700767 22.0667C0.371437 21.2173 0.147435 20.2493 0.0807693 18.8293C0.0659143 18.513 0.0525803 18.1965 0.0407693 17.88L0.0341023 17.6213C0.00953228 16.6491 -0.00158073 15.6766 0.000769273 14.704V11.9627C-0.00295173 10.9901 0.00682627 10.0176 0.0301023 9.04533L0.0394363 8.78666C0.0501023 8.48666 0.0634363 8.192 0.0794363 7.83733C0.146102 6.41733 0.370107 5.45066 0.699437 4.6C1.03426 3.7092 1.5604 2.90269 2.24077 2.23733C2.90623 1.55929 3.71163 1.03464 4.60077 0.700004C5.45144 0.370664 6.4181 0.146666 7.8381 0.08C8.19277 0.064 8.48877 0.050666 8.78744 0.04L9.04611 0.032C10.0183 0.00831001 10.9909 -0.001913 11.9634 0.001333L14.7047 0ZM13.3341 6.66666C11.566 6.66666 9.87034 7.36904 8.62006 8.61928C7.36982 9.86948 6.66744 11.5652 6.66744 13.3333C6.66744 15.1015 7.36982 16.7972 8.62006 18.0474C9.87034 19.2976 11.566 20 13.3341 20C15.1022 20 16.7979 19.2976 18.0481 18.0474C19.2984 16.7972 20.0007 15.1015 20.0007 13.3333C20.0007 11.5652 19.2984 9.86948 18.0481 8.61928C16.7979 7.36904 15.1022 6.66666 13.3341 6.66666ZM13.3341 9.33333C13.8594 9.33324 14.3795 9.43658 14.8648 9.63758C15.3502 9.83848 15.7912 10.1331 16.1627 10.5045C16.5342 10.8758 16.8289 11.3167 17.03 11.802C17.2311 12.2873 17.3346 12.8074 17.3347 13.3327C17.3348 13.858 17.2314 14.3781 17.0305 14.8635C16.8296 15.3488 16.535 15.7898 16.1636 16.1613C15.7923 16.5328 15.3513 16.8275 14.8661 17.0286C14.3808 17.2297 13.8607 17.3333 13.3354 17.3333C12.2745 17.3333 11.2571 16.9119 10.507 16.1618C9.75684 15.4116 9.33544 14.3942 9.33544 13.3333C9.33544 12.2725 9.75684 11.2551 10.507 10.5049C11.2571 9.75478 12.2745 9.33333 13.3354 9.33333M20.3354 4.66666C19.8934 4.66666 19.4694 4.84226 19.1569 5.15482C18.8443 5.46738 18.6687 5.8913 18.6687 6.33333C18.6687 6.77536 18.8443 7.19928 19.1569 7.51184C19.4694 7.8244 19.8934 8 20.3354 8C20.7774 8 21.2013 7.8244 21.5139 7.51184C21.8265 7.19928 22.0021 6.77536 22.0021 6.33333C22.0021 5.8913 21.8265 5.46738 21.5139 5.15482C21.2013 4.84226 20.7774 4.66666 20.3354 4.66666Z" fill="#FBFBFB"/>
</svg>
