<svg width="27" height="27" viewBox="0 0 27 27" fill="none" xmlns="http://www.w3.org/2000/svg">
<g clip-path="url(#clip0_14_61)">
<g clip-path="url(#clip1_14_61)">
<g clip-path="url(#clip2_14_61)">
<path fill-rule="evenodd" clip-rule="evenodd" d="M23.8702 2.40662C24.1997 2.26794 24.5603 2.22011 24.9146 2.26811C25.2688 2.31611 25.6037 2.45818 25.8844 2.67953C26.1651 2.90089 26.3814 3.19344 26.5107 3.52673C26.6399 3.86002 26.6775 4.22187 26.6195 4.57462L23.5955 22.9173C23.3022 24.6866 21.3608 25.7013 19.7382 24.82C18.3808 24.0826 16.3648 22.9466 14.5515 21.7613C13.6448 21.168 10.8675 19.268 11.2088 17.916C11.5022 16.76 16.1688 12.416 18.8355 9.83329C19.8822 8.81862 19.4048 8.23329 18.1688 9.16662C15.0995 11.4839 10.1715 15.008 8.54217 16C7.10484 16.8746 6.35551 17.024 5.45951 16.8746C3.82484 16.6026 2.30884 16.1813 1.07151 15.668C-0.600493 14.9746 -0.51916 12.676 1.07017 12.0066L23.8702 2.40662Z" fill="#FBFBFB"/>
</g>
</g>
</g>
<defs>
<clipPath id="clip0_14_61">
<rect width="27" height="23.14" fill="white" transform="translate(0 1.92999)"/>
</clipPath>
<clipPath id="clip1_14_61">
<rect width="27" height="23.14" fill="white" transform="translate(0 1.92999)"/>
</clipPath>
<clipPath id="clip2_14_61">
<rect width="28" height="24" fill="white" transform="translate(-0.5 1.5)"/>
</clipPath>
</defs>
</svg>
