<svg width="27" height="27" viewBox="0 0 27 27" fill="none" xmlns="http://www.w3.org/2000/svg">
<g clip-path="url(#clip0_14_72)">
<path d="M13.5 0C10.83 0 8.21987 0.791761 5.99981 2.27516C3.77974 3.75856 2.04942 5.86697 1.02763 8.33377C0.00584933 10.8006 -0.261496 13.515 0.259405 16.1337C0.780305 18.7525 2.06606 21.1579 3.95406 23.0459C5.84207 24.9339 8.24754 26.2197 10.8663 26.7406C13.485 27.2615 16.1994 26.9942 18.6662 25.9724C21.133 24.9506 23.2414 23.2203 24.7248 21.0002C26.2082 18.7801 27 16.17 27 13.5C26.9964 9.92067 25.573 6.48897 23.042 3.958C20.511 1.42704 17.0793 0.00357397 13.5 0ZM21.5177 10.4125V11.2846C21.5177 11.3514 21.5043 11.4175 21.4784 11.479C21.4524 11.5405 21.4144 11.5961 21.3666 11.6427C21.3188 11.6893 21.2621 11.7258 21.2 11.7501C21.1378 11.7744 21.0714 11.786 21.0047 11.7841C19.5793 11.6834 18.2156 11.163 17.0856 10.2883V16.6711C17.0853 17.3776 16.9443 18.0768 16.6708 18.7282C16.3972 19.3795 15.9967 19.9698 15.4926 20.4646C14.9843 20.9724 14.3798 21.3737 13.7146 21.6449C13.0493 21.9161 12.3365 22.0519 11.6181 22.0441C10.1734 22.042 8.78682 21.4752 7.7544 20.4646C7.09748 19.8023 6.62431 18.9804 6.38145 18.0797C6.13859 17.1791 6.1344 16.2307 6.3693 15.3279C6.58395 14.4612 7.0173 13.6647 7.62885 13.0153C8.08492 12.4579 8.65981 12.0095 9.31149 11.7028C9.96316 11.3961 10.6751 11.2389 11.3954 11.2428H12.5024V13.5418C12.5028 13.6086 12.4891 13.6747 12.462 13.7358C12.4349 13.7968 12.3952 13.8514 12.3454 13.8958C12.2955 13.9403 12.2368 13.9736 12.1731 13.9936C12.1094 14.0135 12.0421 14.0197 11.9759 14.0116C11.3331 13.8186 10.6405 13.8826 10.0441 14.1903C9.4476 14.4979 8.99389 15.0251 8.77857 15.6607C8.56325 16.2964 8.60314 16.9908 8.88982 17.5976C9.17651 18.2044 9.6876 18.6762 10.3154 18.9135C10.6799 19.1227 11.0876 19.2456 11.5061 19.2739C11.8301 19.2874 12.1541 19.2469 12.4619 19.1497C12.9757 18.9764 13.4226 18.647 13.7404 18.2076C14.0581 17.7681 14.2308 17.2404 14.2344 16.6981V5.0679C14.2344 4.93924 14.2854 4.81583 14.3763 4.72472C14.4671 4.63362 14.5904 4.58226 14.7191 4.5819H16.6293C16.7534 4.58205 16.8728 4.62969 16.9629 4.71503C17.053 4.80038 17.1071 4.91697 17.114 5.0409C17.1836 5.63656 17.3728 6.21202 17.6702 6.73281C17.9676 7.25359 18.367 7.70897 18.8447 8.07165C19.4901 8.55615 20.2566 8.85324 21.06 8.93025C21.1803 8.94054 21.2929 8.99407 21.3767 9.08095C21.4606 9.16782 21.5102 9.28214 21.5163 9.40275L21.5177 10.4125Z" fill="#FBFBFB"/>
</g>
<defs>
<clipPath id="clip0_14_72">
<rect width="27" height="27" fill="white"/>
</clipPath>
</defs>
</svg>
