<svg width="27" height="27" viewBox="0 0 27 27" fill="none" xmlns="http://www.w3.org/2000/svg">
<path fill-rule="evenodd" clip-rule="evenodd" d="M10.7123 17.4971V9.91125L18.0068 13.7171L10.7123 17.4971ZM26.73 8.59612C26.73 8.59612 26.4656 6.73537 25.6567 5.91637C24.6296 4.84087 23.4787 4.83638 22.9511 4.77338C19.1734 4.5 13.5056 4.5 13.5056 4.5H13.4944C13.4944 4.5 7.82662 4.5 4.04887 4.77338C3.52012 4.83525 2.37037 4.84087 1.34212 5.91637C0.53325 6.73537 0.27 8.59612 0.27 8.59612C0.27 8.59612 0 10.782 0 12.9656V15.0154C0 17.2001 0.27 19.3849 0.27 19.3849C0.27 19.3849 0.53325 21.2445 1.34212 22.0646C2.37037 23.1401 3.71925 23.1064 4.32 23.2189C6.48 23.4259 13.5 23.49 13.5 23.49C13.5 23.49 19.1734 23.4821 22.9511 23.2087C23.4799 23.1457 24.6296 23.1401 25.6567 22.0646C26.4667 21.2445 26.73 19.3849 26.73 19.3849C26.73 19.3849 27 17.2001 27 15.0142V12.9668C27 10.782 26.73 8.59612 26.73 8.59612Z" fill="#FBFBFB"/>
</svg>
