<svg width="384" height="87" viewBox="0 0 384 87" fill="none" xmlns="http://www.w3.org/2000/svg">
<g clip-path="url(#clip0_14_532)">
<path d="M46.7731 30.1978C47.9276 29.5839 50.0234 28.6374 54.0268 29.085C58.4444 29.5711 61.2932 32.0012 62.2344 32.871C62.4226 32.5129 63.5396 30.3385 62.6736 27.7421C61.8579 25.2991 59.8876 24.2631 59.4985 24.0584C58.984 24.2375 57.3274 24.7491 55.4575 24.0584C52.7468 23.0608 51.8432 20.3876 51.7428 20.0423C54.0017 20.976 56.2607 21.8969 58.5197 22.8306C58.1181 17.4074 56.3109 14.7598 54.579 13.3529C51.5043 10.846 47.9402 11.6518 40.7993 10.8972C35.5786 10.3472 31.387 9.27278 28.6637 8.44141C29.3916 9.45184 30.3328 10.5646 31.5125 11.6774C34.148 14.1459 36.8964 15.5017 38.8416 16.2435C37.6744 16.3842 35.3527 16.4993 32.7173 15.4633C29.6551 14.261 27.8605 12.189 27.1452 11.2297C24.2336 12.3041 21.3095 13.3913 18.3979 14.4657C21.046 17.3051 25.1999 20.5411 30.4207 23.7387C36.4697 27.4479 42.7446 29.1874 46.7981 30.1722" fill="#FBFBFB"/>
<path d="M52.8598 73.0585C45.8821 81.8967 34.3488 87 34.3363 87C48.5552 67.9552 12.3239 63.6576 9.6508 44.9837C21.7865 56.1497 33.257 55.1904 40.95 63.3634C33.2821 46.4162 7.11574 51.0463 2.8739 24.0715C11.4078 38.256 28.7265 39.778 39.2056 47.8359C33.9723 35.7746 5.17052 37.9106 0 0C17.0426 35.6211 56.9761 30.4027 59.4986 51.5068C60.8038 62.3658 54.2402 71.3062 52.8598 73.0585Z" fill="#FBFBFB"/>
</g>
<path d="M337.285 44.2996C337.285 25.6596 347.925 15.0996 363.605 15.0996C370.885 15.0996 376.805 17.0996 380.885 20.6196C381.445 21.0996 381.605 21.5796 381.605 22.2196V29.8196C381.605 30.6196 381.125 31.0996 380.325 31.0996H373.605C372.965 31.0996 372.485 30.8596 372.085 30.2996C369.925 27.5796 366.645 26.1396 362.645 26.1396C354.725 26.1396 350.085 31.7396 350.085 43.8196C350.085 55.5796 354.245 61.7396 362.965 61.7396C367.525 61.7396 372.725 60.1396 376.965 56.9396C377.605 56.3796 378.245 56.4596 378.725 57.1796L383.445 64.2196C383.845 64.8596 383.765 65.4196 383.205 65.9796C378.165 70.2196 370.885 72.6996 362.565 72.6996C346.885 72.6996 337.285 61.9796 337.285 44.2996Z" fill="#FBFBFB"/>
<path d="M289.98 71.9004C289.18 71.9004 288.7 71.4204 288.7 70.6204V17.1804C288.7 16.3804 289.18 15.9004 289.98 15.9004H299.58C300.38 15.9004 300.86 16.3804 300.86 17.1804V37.0204C300.86 37.1804 301.02 37.3404 301.18 37.3404H309.18C309.34 37.3404 309.5 37.1804 309.58 37.1004L323.34 16.7004C323.74 16.0604 324.22 15.9004 324.86 15.9004H331.74C332.54 15.9004 333.02 16.3804 333.02 17.1804V22.6204C333.02 23.2604 332.78 23.7404 332.46 24.2204L319.82 41.3404C319.74 41.5004 319.74 41.6604 319.82 41.8204L335.42 70.3804C335.9 71.2604 335.42 71.9004 334.46 71.9004H323.42C322.78 71.9004 322.22 71.5804 321.9 71.0204L309.66 48.4604C309.58 48.3004 309.42 48.2204 309.26 48.2204H301.18C301.02 48.2204 300.86 48.3804 300.86 48.5404V70.6204C300.86 71.4204 300.38 71.9004 299.58 71.9004H289.98Z" fill="#FBFBFB"/>
<path d="M265.639 71.9004C264.839 71.9004 264.359 71.4204 264.359 70.6204V17.1804C264.359 16.3804 264.839 15.9004 265.639 15.9004H275.399C276.199 15.9004 276.679 16.3804 276.679 17.1804V70.6204C276.679 71.4204 276.199 71.9004 275.399 71.9004H265.639Z" fill="#FBFBFB"/>
<path d="M241.286 71.9004C240.486 71.9004 240.006 71.4204 240.006 70.6204V48.5404C240.006 48.3804 239.846 48.2204 239.686 48.2204H218.246C218.086 48.2204 217.926 48.3804 217.926 48.5404V70.6204C217.926 71.4204 217.446 71.9004 216.646 71.9004H206.886C206.086 71.9004 205.606 71.4204 205.606 70.6204V17.1804C205.606 16.3804 206.086 15.9004 206.886 15.9004H216.646C217.446 15.9004 217.926 16.3804 217.926 17.1804V37.0204C217.926 37.1804 218.086 37.3404 218.246 37.3404H239.686C239.846 37.3404 240.006 37.1804 240.006 37.0204V17.1804C240.006 16.3804 240.486 15.9004 241.286 15.9004H251.046C251.846 15.9004 252.326 16.3804 252.326 17.1804V70.6204C252.326 71.4204 251.846 71.9004 251.046 71.9004H241.286Z" fill="#FBFBFB"/>
<path d="M160.496 71.9004C159.696 71.9004 159.216 71.4204 159.216 70.6204V17.1804C159.216 16.3804 159.696 15.9004 160.496 15.9004H193.936C194.736 15.9004 195.216 16.3804 195.216 17.1804V25.0204C195.216 25.8204 194.736 26.3004 193.936 26.3004H171.536C171.376 26.3004 171.216 26.4604 171.216 26.6204V37.2604C171.216 37.4204 171.376 37.5804 171.536 37.5804H190.176C190.976 37.5804 191.456 38.1404 191.376 38.9404L190.416 46.7804C190.336 47.5804 189.856 47.9804 189.056 47.9804H171.536C171.376 47.9804 171.216 48.1404 171.216 48.3004V61.1804C171.216 61.3404 171.376 61.5004 171.536 61.5004H197.936C198.736 61.5004 199.216 62.0604 199.136 62.8604L198.176 70.7004C198.096 71.5004 197.616 71.9004 196.816 71.9004H160.496Z" fill="#FBFBFB"/>
<path d="M106.96 64.6998C92.16 64.6998 84 56.3798 84 43.0998C84 29.8198 92.88 21.4998 106.96 21.4998H111.12C111.28 21.4998 111.44 21.3398 111.44 21.1798V15.5798C111.44 14.7798 111.92 14.2998 112.72 14.2998H122.48C123.28 14.2998 123.76 14.7798 123.76 15.5798V21.1798C123.76 21.3398 123.92 21.4998 124.08 21.4998H128.24C143.04 21.4998 151.2 29.8198 151.2 43.0998C151.2 56.3798 142.32 64.6998 128.24 64.6998H124.08C123.92 64.6998 123.76 64.8598 123.76 65.0198V71.4198C123.76 72.2198 123.28 72.6998 122.48 72.6998H112.72C111.92 72.6998 111.44 72.2198 111.44 71.4198V65.0198C111.44 64.8598 111.28 64.6998 111.12 64.6998H106.96ZM96.8 43.0998C96.8 50.4598 100.48 54.2998 107.6 54.2998H111.12C111.28 54.2998 111.44 54.1398 111.44 53.9798V32.2198C111.44 32.0598 111.28 31.8998 111.12 31.8998H107.6C100.48 31.8998 96.8 35.7398 96.8 43.0998ZM123.76 53.9798C123.76 54.1398 123.92 54.2998 124.08 54.2998H127.6C134.72 54.2998 138.4 50.4598 138.4 43.0998C138.4 35.7398 134.72 31.8998 127.6 31.8998H124.08C123.92 31.8998 123.76 32.0598 123.76 32.2198V53.9798Z" fill="#FBFBFB"/>
<defs>
<clipPath id="clip0_14_532">
<rect width="63" height="87" fill="white"/>
</clipPath>
</defs>
</svg>
