<svg width="40" height="55" viewBox="0 0 40 55" fill="none" xmlns="http://www.w3.org/2000/svg">
<g clip-path="url(#clip0_7_1704)">
<path d="M29.6971 19.0907C30.4302 18.7026 31.7608 18.1042 34.3027 18.3872C37.1074 18.6945 38.9162 20.2308 39.5138 20.7807C39.6333 20.5543 40.3425 19.1797 39.7927 17.5382C39.2748 15.9938 38.0238 15.3389 37.7768 15.2095C37.4501 15.3227 36.3983 15.6461 35.211 15.2095C33.4899 14.5788 32.9162 12.8889 32.8525 12.6705C34.2867 13.2608 35.721 13.843 37.1553 14.4333C36.9003 11.0049 35.7529 9.33108 34.6533 8.44164C32.7011 6.85681 30.4381 7.36622 25.9043 6.88915C22.5895 6.54146 19.9282 5.86225 18.1991 5.33667C18.6612 5.97545 19.2588 6.67892 20.0078 7.38239C21.6812 8.94296 23.4262 9.80006 24.6612 10.269C23.9202 10.358 22.4461 10.4308 20.7728 9.7758C18.8286 9.01573 17.6891 7.70582 17.2349 7.09938C15.3863 7.77859 13.5298 8.46589 11.6812 9.14511C13.3624 10.9402 15.9999 12.9859 19.3146 15.0074C23.1553 17.3523 27.1393 18.4519 29.713 19.0745" fill="#FBFBFB"/>
<path d="M33.5618 46.1864C29.1315 51.7737 21.8088 55 21.8008 55C30.8287 42.9602 7.8247 40.2433 6.12749 28.438C13.8327 35.4969 21.1155 34.8905 26 40.0573C21.1315 29.3436 4.51793 32.2707 1.8247 15.2176C7.24303 24.1848 18.239 25.147 24.8924 30.2411C21.5697 22.6161 3.28287 23.9665 0 0C10.8207 22.5191 36.1753 19.2201 37.7769 32.5617C38.6056 39.4266 34.4382 45.0787 33.5618 46.1864Z" fill="#FBFBFB"/>
</g>
<defs>
<clipPath id="clip0_7_1704">
<rect width="40" height="55" fill="white"/>
</clipPath>
</defs>
</svg>
