<svg width="237" height="55" viewBox="0 0 237 55" fill="none" xmlns="http://www.w3.org/2000/svg">
<g clip-path="url(#clip0_48_701)">
<path d="M29.6971 19.0907C30.4302 18.7026 31.7608 18.1042 34.3027 18.3872C37.1074 18.6945 38.9162 20.2308 39.5138 20.7807C39.6333 20.5543 40.3425 19.1797 39.7927 17.5382C39.2748 15.9938 38.0238 15.3389 37.7768 15.2095C37.4501 15.3227 36.3983 15.6461 35.211 15.2095C33.4899 14.5788 32.9162 12.8889 32.8525 12.6705C34.2867 13.2608 35.721 13.843 37.1553 14.4333C36.9003 11.0049 35.7529 9.33108 34.6533 8.44164C32.7011 6.85681 30.4381 7.36622 25.9043 6.88915C22.5895 6.54146 19.9282 5.86225 18.1991 5.33667C18.6612 5.97545 19.2588 6.67892 20.0078 7.38239C21.6812 8.94296 23.4262 9.80006 24.6612 10.269C23.9202 10.358 22.4461 10.4308 20.7728 9.7758C18.8286 9.01573 17.6891 7.70582 17.2349 7.09938C15.3863 7.77859 13.5298 8.46589 11.6812 9.14511C13.3624 10.9402 15.9999 12.9859 19.3146 15.0074C23.1553 17.3523 27.1393 18.4519 29.713 19.0745" fill="#FBFBFB"/>
<path d="M33.5618 46.1864C29.1315 51.7737 21.8088 55 21.8008 55C30.8287 42.9602 7.8247 40.2433 6.12749 28.438C13.8327 35.4969 21.1155 34.8905 26 40.0573C21.1315 29.3436 4.51793 32.2707 1.8247 15.2176C7.24303 24.1848 18.239 25.147 24.8924 30.2411C21.5697 22.6161 3.28287 23.9665 0 0C10.8207 22.5191 36.1753 19.2201 37.7769 32.5617C38.6056 39.4266 34.4382 45.0787 33.5618 46.1864Z" fill="#FBFBFB"/>
</g>
<path d="M80.39 37.55C72.065 37.55 67.475 32.87 67.475 25.4C67.475 17.93 72.47 13.25 80.39 13.25H82.73C82.82 13.25 82.91 13.16 82.91 13.07V9.92C82.91 9.47 83.18 9.2 83.63 9.2H89.12C89.57 9.2 89.84 9.47 89.84 9.92V13.07C89.84 13.16 89.93 13.25 90.02 13.25H92.36C100.685 13.25 105.275 17.93 105.275 25.4C105.275 32.87 100.28 37.55 92.36 37.55H90.02C89.93 37.55 89.84 37.64 89.84 37.73V41.33C89.84 41.78 89.57 42.05 89.12 42.05H83.63C83.18 42.05 82.91 41.78 82.91 41.33V37.73C82.91 37.64 82.82 37.55 82.73 37.55H80.39ZM74.675 25.4C74.675 29.54 76.745 31.7 80.75 31.7H82.73C82.82 31.7 82.91 31.61 82.91 31.52V19.28C82.91 19.19 82.82 19.1 82.73 19.1H80.75C76.745 19.1 74.675 21.26 74.675 25.4ZM89.84 31.52C89.84 31.61 89.93 31.7 90.02 31.7H92C96.005 31.7 98.075 29.54 98.075 25.4C98.075 21.26 96.005 19.1 92 19.1H90.02C89.93 19.1 89.84 19.19 89.84 19.28V31.52ZM110.504 41.6C110.054 41.6 109.784 41.33 109.784 40.88V10.82C109.784 10.37 110.054 10.1 110.504 10.1H129.314C129.764 10.1 130.034 10.37 130.034 10.82V15.23C130.034 15.68 129.764 15.95 129.314 15.95H116.714C116.624 15.95 116.534 16.04 116.534 16.13V22.115C116.534 22.205 116.624 22.295 116.714 22.295H127.199C127.649 22.295 127.919 22.61 127.874 23.06L127.334 27.47C127.289 27.92 127.019 28.145 126.569 28.145H116.714C116.624 28.145 116.534 28.235 116.534 28.325V35.57C116.534 35.66 116.624 35.75 116.714 35.75H131.564C132.014 35.75 132.284 36.065 132.239 36.515L131.699 40.925C131.654 41.375 131.384 41.6 130.934 41.6H110.504ZM155.949 41.6C155.499 41.6 155.229 41.33 155.229 40.88V28.46C155.229 28.37 155.139 28.28 155.049 28.28H142.989C142.899 28.28 142.809 28.37 142.809 28.46V40.88C142.809 41.33 142.539 41.6 142.089 41.6H136.599C136.149 41.6 135.879 41.33 135.879 40.88V10.82C135.879 10.37 136.149 10.1 136.599 10.1H142.089C142.539 10.1 142.809 10.37 142.809 10.82V21.98C142.809 22.07 142.899 22.16 142.989 22.16H155.049C155.139 22.16 155.229 22.07 155.229 21.98V10.82C155.229 10.37 155.499 10.1 155.949 10.1H161.439C161.889 10.1 162.159 10.37 162.159 10.82V40.88C162.159 41.33 161.889 41.6 161.439 41.6H155.949ZM169.647 41.6C169.197 41.6 168.927 41.33 168.927 40.88V10.82C168.927 10.37 169.197 10.1 169.647 10.1H175.137C175.587 10.1 175.857 10.37 175.857 10.82V40.88C175.857 41.33 175.587 41.6 175.137 41.6H169.647ZM183.339 41.6C182.889 41.6 182.619 41.33 182.619 40.88V10.82C182.619 10.37 182.889 10.1 183.339 10.1H188.739C189.189 10.1 189.459 10.37 189.459 10.82V21.98C189.459 22.07 189.549 22.16 189.639 22.16H194.139C194.229 22.16 194.319 22.07 194.364 22.025L202.104 10.55C202.329 10.19 202.599 10.1 202.959 10.1H206.829C207.279 10.1 207.549 10.37 207.549 10.82V13.88C207.549 14.24 207.414 14.51 207.234 14.78L200.124 24.41C200.079 24.5 200.079 24.59 200.124 24.68L208.899 40.745C209.169 41.24 208.899 41.6 208.359 41.6H202.149C201.789 41.6 201.474 41.42 201.294 41.105L194.409 28.415C194.364 28.325 194.274 28.28 194.184 28.28H189.639C189.549 28.28 189.459 28.37 189.459 28.46V40.88C189.459 41.33 189.189 41.6 188.739 41.6H183.339ZM209.948 26.075C209.948 15.59 215.933 9.65 224.753 9.65C228.848 9.65 232.178 10.775 234.473 12.755C234.788 13.025 234.878 13.295 234.878 13.655V17.93C234.878 18.38 234.608 18.65 234.158 18.65H230.378C230.018 18.65 229.748 18.515 229.523 18.2C228.308 16.67 226.463 15.86 224.213 15.86C219.758 15.86 217.148 19.01 217.148 25.805C217.148 32.42 219.488 35.885 224.393 35.885C226.958 35.885 229.883 34.985 232.268 33.185C232.628 32.87 232.988 32.915 233.258 33.32L235.913 37.28C236.138 37.64 236.093 37.955 235.778 38.27C232.943 40.655 228.848 42.05 224.168 42.05C215.348 42.05 209.948 36.02 209.948 26.075Z" fill="#FBFBFB"/>
<defs>
<clipPath id="clip0_48_701">
<rect width="40" height="55" fill="white"/>
</clipPath>
</defs>
</svg>
