<svg width="37" height="31" viewBox="0 0 37 31" fill="none" xmlns="http://www.w3.org/2000/svg">
<path fill-rule="evenodd" clip-rule="evenodd" d="M2.52087 13.0825C12.3644 8.79382 18.9283 5.96648 22.2125 4.60044C31.5897 0.700135 33.5382 0.0226108 34.8082 0.000238538C35.0876 -0.00468199 35.7121 0.0645432 36.1167 0.392815C36.4583 0.670001 36.5523 1.04444 36.5972 1.30724C36.6422 1.57005 36.6982 2.16872 36.6537 2.6365C36.1455 7.97572 33.9468 20.9326 32.8282 26.9126C32.3548 29.443 31.4228 30.2914 30.5206 30.3744C28.5597 30.5549 27.0707 29.0786 25.1715 27.8336C22.1997 25.8855 20.5207 24.6728 17.636 22.7719C14.3023 20.575 16.4634 19.3675 18.3633 17.3942C18.8605 16.8777 27.5001 9.01937 27.6674 8.30649C27.6883 8.21733 27.7077 7.88499 27.5102 7.70951C27.3128 7.53402 27.0214 7.59403 26.8111 7.64176C26.5131 7.70941 21.7655 10.8474 12.5684 17.0557C11.2208 17.981 10.0002 18.4319 8.90659 18.4083C7.70097 18.3822 5.38183 17.7266 3.65779 17.1662C1.54318 16.4788 -0.137463 16.1154 0.00888365 14.948C0.08511 14.34 0.922439 13.7181 2.52087 13.0825Z" fill="#FBFBFB"/>
</svg>
