<svg width="30" height="25" viewBox="0 0 30 25" fill="none" xmlns="http://www.w3.org/2000/svg">
<path fill-rule="evenodd" clip-rule="evenodd" d="M2.06234 10.7623C10.1154 7.23426 15.4854 4.90834 18.1722 3.78456C25.8438 0.575968 27.4379 0.0186008 28.4769 0.000196234C28.7054 -0.00385165 29.2163 0.0530967 29.5473 0.32315C29.8268 0.551178 29.9037 0.859211 29.9405 1.07541C29.9773 1.2916 30.0231 1.7841 29.9867 2.16893C29.5709 6.56125 27.7721 17.2203 26.857 22.1397C26.4697 24.2214 25.7073 24.9193 24.9691 24.9876C23.3649 25.1361 22.1467 23.9216 20.593 22.8974C18.1617 21.2948 16.7882 20.2972 14.4282 18.7333C11.7008 16.926 13.4688 15.9327 15.0232 14.3094C15.4299 13.8845 22.4981 7.41981 22.6349 6.83335C22.652 6.76001 22.6679 6.48661 22.5063 6.34225C22.3448 6.19788 22.1064 6.24725 21.9344 6.28651C21.6905 6.34216 17.8065 8.92363 10.2823 14.0309C9.17983 14.7921 8.18124 15.1631 7.28655 15.1436C6.30022 15.1222 4.40291 14.5828 2.99246 14.1218C1.26249 13.5563 -0.112459 13.2574 0.00726778 12.297C0.0696291 11.7968 0.754654 11.2853 2.06234 10.7623Z" fill="#FBFBFB"/>
</svg>
