<svg width="24" height="27" viewBox="0 0 24 27" fill="none" xmlns="http://www.w3.org/2000/svg">
<path d="M18.66 4.23C17.6349 3.05929 17.0698 1.5561 17.07 0H12.435V18.6C12.4 19.6068 11.9753 20.5606 11.2505 21.2602C10.5256 21.9599 9.5574 22.3506 8.55 22.35C6.42 22.35 4.65 20.61 4.65 18.45C4.65 15.87 7.14 13.935 9.705 14.73V9.99C4.53 9.3 0 13.32 0 18.45C0 23.445 4.14 27 8.535 27C13.245 27 17.07 23.175 17.07 18.45V9.015C18.9495 10.3648 21.206 11.089 23.52 11.085V6.45C23.52 6.45 20.7 6.585 18.66 4.23Z" fill="#FBFBFB"/>
</svg>
